<svg width="120" height="32" viewBox="0 0 120 32" fill="none" xmlns="http://www.w3.org/2000/svg">
  <!-- Icon part - AI symbol -->
  <circle cx="16" cy="16" r="14" fill="#0B996E"/>
  <path d="M16 6C10.5 6 6 10.5 6 16C6 21.5 10.5 26 16 26C21.5 26 26 21.5 26 16C26 10.5 21.5 6 16 6ZM16 23.5C11.9 23.5 8.5 20.1 8.5 16C8.5 11.9 11.9 8.5 16 8.5C20.1 8.5 23.5 11.9 23.5 16C23.5 20.1 20.1 23.5 16 23.5Z" fill="white"/>
  <circle cx="13" cy="14" r="1.5" fill="white"/>
  <circle cx="19" cy="14" r="1.5" fill="white"/>
  <circle cx="16" cy="18.5" r="1.5" fill="white"/>
  <path d="M13 14L16 18.5L19 14" stroke="white" stroke-width="1.5" stroke-linecap="round" stroke-linejoin="round" fill="none"/>

  <!-- Brevo text -->
  <text x="38" y="22" font-family="Arial, sans-serif" font-size="18" font-weight="700" fill="white">Brevo</text>

  <!-- "AI Playbook" text smaller -->
  <text x="38" y="10" font-family="Arial, sans-serif" font-size="8" font-weight="400" fill="#D7FEC8" letter-spacing="0.5">AI PLAYBOOK</text>
</svg>
